<?xml version="1.0" standalone="no"?>
<!DOCTYPE svg PUBLIC "-//W3C//DTD SVG 20010904//EN"
 "http://www.w3.org/TR/2001/REC-SVG-20010904/DTD/svg10.dtd">
<svg version="1.0" xmlns="http://www.w3.org/2000/svg"
 width="2883.000000pt" height="504.000000pt" viewBox="0 0 2883.000000 504.000000"
 preserveAspectRatio="xMidYMid meet">
<metadata>
Created by potrace 1.15, written by Peter Selinger 2001-2017
</metadata>
<g transform="translate(0.000000,504.000000) scale(0.100000,-0.100000)"
fill="#000000" stroke="none">
<path d="M19831 4494 c-116 -20 -253 -67 -336 -116 -235 -138 -382 -429 -430
-848 -14 -116 -15 -273 -12 -1085 3 -920 4 -954 25 -1061 118 -617 428 -884
1027 -884 423 0 692 137 839 426 110 215 156 484 156 900 l0 184 -258 0 -259
0 -6 -297 c-9 -435 -33 -554 -136 -666 -90 -98 -268 -137 -462 -103 -235 42
-336 189 -369 541 -14 152 -13 1894 1 2061 19 220 68 356 156 434 88 77 175
103 348 104 100 0 132 -4 193 -23 126 -41 212 -141 241 -281 18 -86 30 -297
31 -512 l0 -198 260 0 260 0 0 193 c0 473 -62 737 -221 949 -94 126 -236 215
-425 265 -90 23 -119 26 -319 29 -160 2 -243 -1 -304 -12z"/>
<path d="M22352 4494 c-116 -19 -258 -69 -345 -120 -223 -130 -361 -361 -429
-718 -20 -107 -21 -144 -25 -1046 -3 -648 -1 -973 7 -1060 43 -474 205 -782
489 -929 167 -86 315 -116 576 -116 252 0 404 29 560 108 244 122 398 350 474
700 40 185 43 271 38 1282 -4 1055 -2 1015 -62 1228 -114 402 -361 620 -770
676 -106 15 -412 12 -513 -5z m443 -423 c20 -5 29 -14 28 -26 -3 -38 -678
-2725 -684 -2725 -9 0 -18 63 -29 201 -13 152 -12 1851 0 2003 31 369 135 515
395 556 65 10 242 5 290 -9z m333 -398 c13 -58 16 -224 19 -1078 5 -1185 2
-1244 -78 -1422 -53 -120 -117 -176 -244 -216 -128 -39 -424 -24 -413 22 3 9
159 636 349 1393 189 757 346 1375 348 1372 2 -2 11 -34 19 -71z"/>
<path d="M3795 4465 c-333 -72 -635 -369 -829 -811 -93 -211 -156 -438 -198
-709 -26 -167 -36 -559 -19 -742 43 -464 176 -873 387 -1190 62 -94 230 -290
240 -281 7 8 924 3645 922 3657 -4 20 -96 56 -191 75 -91 19 -229 19 -312 1z"/>
<path d="M24242 2513 l3 -1968 530 0 c553 0 622 4 780 46 336 88 534 290 638
650 37 128 57 258 67 455 13 236 12 1491 0 1714 -39 685 -306 992 -922 1059
-56 6 -311 11 -598 11 l-500 0 2 -1967z m1113 1532 c229 -65 313 -196 344
-535 14 -151 14 -1765 0 -1960 -18 -255 -53 -364 -154 -469 -107 -113 -217
-141 -541 -141 l-214 0 0 1566 0 1566 253 -5 c197 -3 265 -8 312 -22z"/>
<path d="M26802 2513 l3 -1968 768 -3 767 -2 0 200 0 200 -495 0 -495 0 0 720
0 720 400 0 400 0 0 195 0 195 -400 0 -400 0 0 650 0 650 490 0 490 0 0 205 0
205 -765 0 -765 0 2 -1967z"/>
<path d="M1270 4464 c-14 -2 -59 -9 -100 -15 -217 -32 -413 -135 -526 -277
-59 -74 -146 -253 -179 -367 -72 -252 -85 -445 -85 -1345 0 -721 8 -937 39
-1121 51 -298 177 -552 337 -682 80 -66 219 -132 339 -163 136 -36 439 -46
594 -20 386 65 585 260 692 678 34 137 49 280 56 551 l6 257 -261 0 -262 0 0
-162 c0 -215 -17 -495 -35 -579 -30 -144 -114 -254 -230 -299 -53 -21 -77 -24
-205 -24 -127 -1 -153 2 -213 22 -140 49 -222 161 -268 367 -23 99 -23 107
-27 1095 -2 674 0 1036 8 1122 19 219 59 335 146 422 91 91 191 120 384 113
186 -7 279 -47 349 -153 63 -96 78 -192 87 -576 l7 -278 259 0 258 0 0 168 c0
417 -48 681 -161 877 -156 274 -426 398 -854 394 -71 -1 -141 -3 -155 -5z"/>
<path d="M5580 2470 l0 -1970 275 0 275 0 0 920 0 920 375 0 375 0 0 195 0
195 -375 0 -375 0 0 655 0 655 485 0 485 0 0 200 0 200 -760 0 -760 0 0 -1970z"/>
<path d="M7480 2470 l0 -1970 275 0 275 0 0 920 0 920 375 0 375 0 0 195 0
195 -375 0 -375 0 0 655 0 655 485 0 485 0 0 200 0 200 -760 0 -760 0 0 -1970z"/>
<path d="M9387 4433 c-4 -3 -7 -890 -7 -1970 l0 -1963 770 0 770 0 0 195 0
195 -492 2 -493 3 0 720 0 720 393 3 392 2 0 195 0 195 -395 0 -395 0 0 650 0
650 490 0 490 0 0 205 0 205 -758 0 c-417 0 -762 -3 -765 -7z"/>
<path d="M11360 2470 l0 -1970 770 0 770 0 0 195 0 195 -492 2 -493 3 0 720 0
720 393 3 392 2 0 195 0 195 -395 0 -395 0 0 650 0 650 490 0 490 0 0 205 0
205 -765 0 -765 0 0 -1970z"/>
<path d="M14440 4165 l0 -274 128 -3 127 -3 -3 -90 c-5 -180 -38 -307 -95
-371 -33 -38 -94 -74 -126 -74 -11 0 -23 -4 -26 -10 -3 -5 13 -51 37 -101 l42
-91 53 6 c165 19 287 119 352 286 63 162 83 355 79 740 l-3 255 -282 3 -283 2
0 -275z"/>
<path d="M15467 4433 c-4 -3 -7 -890 -7 -1970 l0 -1963 235 0 235 0 2 1338 3
1337 554 -1315 c305 -723 559 -1325 564 -1338 10 -22 13 -22 184 -22 l173 0 0
1970 0 1970 -225 0 -225 0 0 -1302 c0 -749 -4 -1298 -9 -1292 -5 5 -252 579
-549 1275 -297 696 -546 1277 -553 1292 l-12 27 -182 0 c-100 0 -185 -3 -188
-7z"/>
<path d="M4596 4159 c-3 -8 -208 -817 -456 -1799 -248 -982 -453 -1792 -456
-1801 -3 -13 9 -20 56 -33 538 -151 1061 284 1304 1086 82 272 120 546 119
878 0 629 -154 1155 -453 1555 -81 107 -107 134 -114 114z"/>
</g>
</svg>
